<svg width="73" height="73" viewBox="0 0 73 73" fill="none" xmlns="http://www.w3.org/2000/svg">
<g clip-path="url(#clip0_19_179)">
<path d="M36.5581 0.470276C16.6765 0.470276 0.558899 16.5884 0.558899 36.4699C0.558899 56.351 16.6765 72.4703 36.5581 72.4703C56.4396 72.4703 72.5584 56.351 72.5584 36.4699C72.5584 16.5879 56.4396 0.470276 36.5581 0.470276ZM36.6677 53.4539V53.4534H36.4479H21.0705C21.0705 42.2079 30.947 42.2105 33.1387 39.27L33.3895 37.9291C30.3103 36.3686 28.1366 32.6064 28.1366 28.2062C28.1366 22.4091 31.9075 17.7089 36.5581 17.7089C41.2086 17.7089 44.9795 22.4091 44.9795 28.2062C44.9795 32.5689 42.8444 36.3077 39.8063 37.8929L40.0919 39.4167C42.4964 42.2146 52.0445 42.397 52.0445 53.4539H36.6677V53.4539Z" fill="white"/>
</g>
<defs>
<clipPath id="clip0_19_179">
<rect width="72" height="72" fill="white" transform="translate(0.558716 0.470276)"/>
</clipPath>
</defs>
</svg>
