<svg width="329" height="172" viewBox="0 0 329 172" fill="none" xmlns="http://www.w3.org/2000/svg">
<rect x="0.727295" y="70.8352" width="154.052" height="101.14" rx="8.29004" fill="#FF0000"/>
<rect x="166.73" y="47.1494" width="162.211" height="124.826" rx="8.29004" fill="#00FF57"/>
<path d="M211.866 157.962C210.465 157.962 209.261 157.666 208.254 157.074C207.247 156.482 206.478 155.584 205.945 154.38C205.412 153.156 205.145 151.616 205.145 149.761C205.145 147.886 205.422 146.346 205.974 145.142C206.547 143.938 207.336 143.04 208.343 142.448C209.35 141.856 210.524 141.56 211.866 141.56C213.366 141.56 214.708 141.895 215.893 142.566C217.097 143.238 218.044 144.185 218.735 145.409C219.446 146.633 219.801 148.083 219.801 149.761C219.801 151.419 219.446 152.86 218.735 154.084C218.044 155.307 217.097 156.265 215.893 156.956C214.708 157.627 213.366 157.962 211.866 157.962ZM202.451 157.725V135.757H207.07V145.024L206.774 149.731L206.863 154.469V157.725H202.451ZM211.067 154.172C211.837 154.172 212.518 153.995 213.11 153.64C213.722 153.284 214.205 152.781 214.56 152.13C214.935 151.458 215.123 150.669 215.123 149.761C215.123 148.833 214.935 148.044 214.56 147.392C214.205 146.741 213.722 146.238 213.11 145.882C212.518 145.527 211.837 145.35 211.067 145.35C210.297 145.35 209.606 145.527 208.994 145.882C208.382 146.238 207.899 146.741 207.544 147.392C207.188 148.044 207.011 148.833 207.011 149.761C207.011 150.669 207.188 151.458 207.544 152.13C207.899 152.781 208.382 153.284 208.994 153.64C209.606 153.995 210.297 154.172 211.067 154.172ZM230.798 157.962C228.982 157.962 227.383 157.607 226.002 156.896C224.64 156.186 223.584 155.219 222.834 153.995C222.084 152.751 221.709 151.34 221.709 149.761C221.709 148.162 222.074 146.751 222.804 145.527C223.554 144.284 224.571 143.316 225.854 142.626C227.137 141.915 228.587 141.56 230.206 141.56C231.765 141.56 233.167 141.895 234.41 142.566C235.673 143.218 236.67 144.165 237.4 145.409C238.131 146.633 238.496 148.103 238.496 149.82C238.496 149.998 238.486 150.205 238.466 150.442C238.446 150.659 238.427 150.866 238.407 151.064H225.469V148.369H235.979L234.203 149.169C234.203 148.34 234.035 147.619 233.699 147.008C233.364 146.396 232.9 145.922 232.308 145.586C231.716 145.231 231.025 145.053 230.235 145.053C229.446 145.053 228.745 145.231 228.133 145.586C227.541 145.922 227.077 146.406 226.742 147.037C226.406 147.649 226.238 148.379 226.238 149.228V149.939C226.238 150.807 226.426 151.577 226.801 152.248C227.196 152.899 227.739 153.403 228.429 153.758C229.14 154.094 229.969 154.261 230.916 154.261C231.765 154.261 232.505 154.133 233.137 153.876C233.788 153.62 234.38 153.235 234.913 152.722L237.371 155.386C236.64 156.215 235.723 156.857 234.617 157.311C233.512 157.745 232.239 157.962 230.798 157.962ZM241.571 157.725V135.757H246.19V157.725H241.571ZM258.056 157.962C256.358 157.962 254.848 157.607 253.526 156.896C252.223 156.186 251.187 155.219 250.417 153.995C249.667 152.751 249.292 151.34 249.292 149.761C249.292 148.162 249.667 146.751 250.417 145.527C251.187 144.284 252.223 143.316 253.526 142.626C254.848 141.915 256.358 141.56 258.056 141.56C259.733 141.56 261.233 141.915 262.556 142.626C263.878 143.316 264.915 144.274 265.665 145.498C266.415 146.721 266.79 148.142 266.79 149.761C266.79 151.34 266.415 152.751 265.665 153.995C264.915 155.219 263.878 156.186 262.556 156.896C261.233 157.607 259.733 157.962 258.056 157.962ZM258.056 154.172C258.825 154.172 259.516 153.995 260.128 153.64C260.74 153.284 261.224 152.781 261.579 152.13C261.934 151.458 262.112 150.669 262.112 149.761C262.112 148.833 261.934 148.044 261.579 147.392C261.224 146.741 260.74 146.238 260.128 145.882C259.516 145.527 258.825 145.35 258.056 145.35C257.286 145.35 256.595 145.527 255.983 145.882C255.371 146.238 254.878 146.741 254.503 147.392C254.147 148.044 253.97 148.833 253.97 149.761C253.97 150.669 254.147 151.458 254.503 152.13C254.878 152.781 255.371 153.284 255.983 153.64C256.595 153.995 257.286 154.172 258.056 154.172ZM273.085 157.725L267.341 141.797H271.693L276.46 155.505H274.388L279.362 141.797H283.27L288.096 155.505H286.023L290.938 141.797H295.024L289.251 157.725H284.78L280.546 145.971H281.908L277.526 157.725H273.085Z" fill="black"/>
<path d="M42.1839 157.535V154.426L41.8878 153.745V148.179C41.8878 147.192 41.5818 146.422 40.97 145.869C40.3778 145.317 39.46 145.04 38.2165 145.04C37.3677 145.04 36.5289 145.179 35.6999 145.455C34.8906 145.712 34.1998 146.067 33.6274 146.521L31.9694 143.294C32.8378 142.682 33.884 142.208 35.1077 141.872C36.3315 141.537 37.575 141.369 38.8382 141.369C41.266 141.369 43.151 141.942 44.4932 143.086C45.8354 144.231 46.5065 146.017 46.5065 148.445V157.535H42.1839ZM37.3283 157.772C36.0848 157.772 35.0189 157.564 34.1307 157.15C33.2425 156.716 32.5615 156.133 32.0878 155.403C31.6141 154.673 31.3772 153.854 31.3772 152.946C31.3772 151.998 31.6042 151.169 32.0582 150.459C32.5319 149.748 33.2721 149.195 34.2787 148.801C35.2854 148.386 36.598 148.179 38.2165 148.179H42.4503V150.873H38.7198C37.6342 150.873 36.8842 151.051 36.4697 151.406C36.0749 151.761 35.8775 152.205 35.8775 152.738C35.8775 153.33 36.1045 153.804 36.5585 154.159C37.0322 154.495 37.6737 154.663 38.483 154.663C39.2527 154.663 39.9436 154.485 40.5555 154.13C41.1673 153.755 41.6115 153.212 41.8878 152.501L42.5984 154.633C42.2628 155.66 41.6509 156.439 40.7627 156.972C39.8745 157.505 38.7297 157.772 37.3283 157.772ZM60.1018 157.772C58.7004 157.772 57.4964 157.475 56.4897 156.883C55.4831 156.291 54.7133 155.393 54.1804 154.189C53.6474 152.965 53.381 151.426 53.381 149.57C53.381 147.695 53.6573 146.156 54.21 144.952C54.7824 143.748 55.5719 142.849 56.5785 142.257C57.5852 141.665 58.7596 141.369 60.1018 141.369C61.6019 141.369 62.9441 141.705 64.1284 142.376C65.3324 143.047 66.2799 143.994 66.9707 145.218C67.6813 146.442 68.0366 147.893 68.0366 149.57C68.0366 151.228 67.6813 152.669 66.9707 153.893C66.2799 155.117 65.3324 156.074 64.1284 156.765C62.9441 157.436 61.6019 157.772 60.1018 157.772ZM50.6867 157.535V135.566H55.3054V144.833L55.0094 149.541L55.0982 154.278V157.535H50.6867ZM59.3024 153.982C60.0722 153.982 60.7532 153.804 61.3453 153.449C61.9572 153.094 62.4408 152.59 62.7961 151.939C63.1711 151.268 63.3586 150.478 63.3586 149.57C63.3586 148.643 63.1711 147.853 62.7961 147.202C62.4408 146.55 61.9572 146.047 61.3453 145.692C60.7532 145.337 60.0722 145.159 59.3024 145.159C58.5326 145.159 57.8418 145.337 57.2299 145.692C56.618 146.047 56.1344 146.55 55.7792 147.202C55.4239 147.853 55.2462 148.643 55.2462 149.57C55.2462 150.478 55.4239 151.268 55.7792 151.939C56.1344 152.59 56.618 153.094 57.2299 153.449C57.8418 153.804 58.5326 153.982 59.3024 153.982ZM78.7079 157.772C77.0104 157.772 75.5005 157.416 74.178 156.706C72.8753 155.995 71.839 155.028 71.0692 153.804C70.3192 152.561 69.9442 151.149 69.9442 149.57C69.9442 147.972 70.3192 146.56 71.0692 145.337C71.839 144.093 72.8753 143.126 74.178 142.435C75.5005 141.724 77.0104 141.369 78.7079 141.369C80.3857 141.369 81.8858 141.724 83.2082 142.435C84.5307 143.126 85.5669 144.083 86.317 145.307C87.067 146.531 87.4421 147.952 87.4421 149.57C87.4421 151.149 87.067 152.561 86.317 153.804C85.5669 155.028 84.5307 155.995 83.2082 156.706C81.8858 157.416 80.3857 157.772 78.7079 157.772ZM78.7079 153.982C79.4777 153.982 80.1685 153.804 80.7804 153.449C81.3923 153.094 81.8759 152.59 82.2312 151.939C82.5865 151.268 82.7641 150.478 82.7641 149.57C82.7641 148.643 82.5865 147.853 82.2312 147.202C81.8759 146.55 81.3923 146.047 80.7804 145.692C80.1685 145.337 79.4777 145.159 78.7079 145.159C77.9381 145.159 77.2473 145.337 76.6354 145.692C76.0235 146.047 75.5301 146.55 75.155 147.202C74.7997 147.853 74.6221 148.643 74.6221 149.57C74.6221 150.478 74.7997 151.268 75.155 151.939C75.5301 152.59 76.0235 153.094 76.6354 153.449C77.2473 153.804 77.9381 153.982 78.7079 153.982ZM94.4183 157.535L87.727 141.606H92.4938L98.06 155.314H95.6914L101.465 141.606H105.906L99.185 157.535H94.4183ZM115.262 157.772C113.446 157.772 111.847 157.416 110.466 156.706C109.104 155.995 108.048 155.028 107.298 153.804C106.548 152.561 106.173 151.149 106.173 149.57C106.173 147.972 106.538 146.56 107.268 145.337C108.018 144.093 109.035 143.126 110.318 142.435C111.601 141.724 113.051 141.369 114.67 141.369C116.229 141.369 117.631 141.705 118.874 142.376C120.137 143.027 121.134 143.975 121.864 145.218C122.595 146.442 122.96 147.912 122.96 149.63C122.96 149.807 122.95 150.014 122.93 150.251C122.911 150.468 122.891 150.676 122.871 150.873H109.933V148.179H120.443L118.667 148.978C118.667 148.149 118.499 147.429 118.164 146.817C117.828 146.205 117.364 145.731 116.772 145.396C116.18 145.04 115.489 144.863 114.699 144.863C113.91 144.863 113.209 145.04 112.597 145.396C112.005 145.731 111.541 146.215 111.206 146.846C110.87 147.458 110.702 148.189 110.702 149.037V149.748C110.702 150.616 110.89 151.386 111.265 152.057C111.66 152.709 112.203 153.212 112.893 153.567C113.604 153.903 114.433 154.071 115.38 154.071C116.229 154.071 116.969 153.942 117.601 153.686C118.252 153.429 118.844 153.044 119.377 152.531L121.835 155.196C121.105 156.025 120.187 156.666 119.081 157.12C117.976 157.554 116.703 157.772 115.262 157.772Z" fill="black"/>
<path d="M186.927 46.962V41.988L199.717 29.9082C200.728 28.9924 201.47 28.1713 201.944 27.4449C202.418 26.7186 202.733 26.0554 202.891 25.4553C203.081 24.8553 203.176 24.3026 203.176 23.7973C203.176 22.4709 202.718 21.4603 201.802 20.7655C200.917 20.0392 199.607 19.676 197.87 19.676C196.48 19.676 195.185 19.9444 193.985 20.4813C192.817 21.0182 191.822 21.8551 191.001 22.992L185.411 19.3917C186.674 17.4969 188.443 15.9968 190.717 14.8914C192.991 13.7861 195.612 13.2334 198.58 13.2334C201.044 13.2334 203.191 13.644 205.023 14.4651C206.886 15.2546 208.323 16.3757 209.334 17.8285C210.376 19.2812 210.897 21.0182 210.897 23.0394C210.897 24.1131 210.755 25.1869 210.471 26.2606C210.218 27.3028 209.681 28.4081 208.86 29.5766C208.071 30.7451 206.902 32.0558 205.355 33.5085L194.743 43.5039L193.275 40.709H211.987V46.962H186.927ZM219.974 47.341C218.711 47.341 217.621 46.9147 216.705 46.062C215.821 45.1777 215.379 44.0566 215.379 42.6986C215.379 41.3406 215.821 40.2511 216.705 39.4299C217.621 38.5773 218.711 38.1509 219.974 38.1509C221.269 38.1509 222.358 38.5773 223.243 39.4299C224.127 40.2511 224.569 41.3406 224.569 42.6986C224.569 44.0566 224.127 45.1777 223.243 46.062C222.358 46.9147 221.269 47.341 219.974 47.341ZM239.23 47.5305C236.924 47.5305 234.635 47.2305 232.361 46.6304C230.087 45.9988 228.161 45.1145 226.582 43.9776L229.566 38.1035C230.829 39.0194 232.298 39.7458 233.972 40.2826C235.645 40.8195 237.335 41.088 239.04 41.088C240.967 41.088 242.483 40.709 243.588 39.951C244.693 39.1931 245.246 38.1509 245.246 36.8245C245.246 35.5613 244.756 34.5665 243.777 33.8401C242.798 33.1137 241.219 32.7505 239.04 32.7505H235.535V27.6818L244.772 17.2126L245.625 19.9602H228.24V13.8019H251.452V18.7759L242.262 29.245L238.377 27.0186H240.604C244.678 27.0186 247.757 27.9344 249.841 29.7661C251.925 31.5978 252.968 33.9506 252.968 36.8245C252.968 38.6878 252.478 40.4405 251.499 42.0828C250.52 43.6934 249.02 45.004 246.999 46.0146C244.978 47.0252 242.388 47.5305 239.23 47.5305ZM267.033 47.5305C264.727 47.5305 262.438 47.2305 260.164 46.6304C257.89 45.9988 255.964 45.1145 254.385 43.9776L257.369 38.1035C258.632 39.0194 260.101 39.7458 261.775 40.2826C263.448 40.8195 265.138 41.088 266.843 41.088C268.77 41.088 270.286 40.709 271.391 39.951C272.496 39.1931 273.049 38.1509 273.049 36.8245C273.049 35.5613 272.56 34.5665 271.581 33.8401C270.602 33.1137 269.022 32.7505 266.843 32.7505H263.338V27.6818L272.575 17.2126L273.428 19.9602H256.043V13.8019H279.255V18.7759L270.065 29.245L266.18 27.0186H268.407C272.481 27.0186 275.56 27.9344 277.644 29.7661C279.728 31.5978 280.771 33.9506 280.771 36.8245C280.771 38.6878 280.281 40.4405 279.302 42.0828C278.323 43.6934 276.823 45.004 274.802 46.0146C272.781 47.0252 270.191 47.5305 267.033 47.5305ZM281.869 46.962L293.286 31.9926L293.144 36.0666L282.201 21.4761H290.491L297.407 30.9978L294.281 31.0925L301.434 21.4761H309.298L298.307 35.9244V31.9452L309.677 46.962H301.292L294.044 36.8245L297.123 37.2508L289.923 46.962H281.869Z" fill="#00FF57"/>
<path d="M30.0166 70.6479V40.33L33.3326 43.646H23.3846V37.4877H37.6908V70.6479H30.0166ZM47.8095 71.0268C46.5462 71.0268 45.4567 70.6005 44.5408 69.7478C43.6566 68.8635 43.2144 67.7424 43.2144 66.3844C43.2144 65.0264 43.6566 63.9369 44.5408 63.1158C45.4567 62.2631 46.5462 61.8367 47.8095 61.8367C49.1043 61.8367 50.1938 62.2631 51.0781 63.1158C51.9624 63.9369 52.4045 65.0264 52.4045 66.3844C52.4045 67.7424 51.9624 68.8635 51.0781 69.7478C50.1938 70.6005 49.1043 71.0268 47.8095 71.0268ZM55.4704 63.6842V58.5207L71.103 37.4877H79.1562L63.8551 58.5207L60.1128 57.4312H86.2145V63.6842H55.4704ZM73.3295 70.6479V63.6842L73.5663 57.4312V51.2255H80.8142V70.6479H73.3295ZM92.4232 70.6479V40.33L95.7392 43.646H85.7912V37.4877H100.097V70.6479H92.4232ZM104.2 70.6479L115.616 55.6784L115.474 59.7524L104.531 45.1619H112.821L119.738 54.6836L116.611 54.7784L123.764 45.1619H131.628L120.638 59.6103V55.631L132.007 70.6479H123.622L116.374 60.5103L119.454 60.9367L112.253 70.6479H104.2Z" fill="#FF0000"/>
</svg>
