<svg width="194" height="148" viewBox="0 0 194 148" fill="none" xmlns="http://www.w3.org/2000/svg">
<path d="M74.9229 58.6812V50.9113L98.4467 19.2611H110.565L87.5402 50.9113L81.9088 49.2717H121.186V58.6812H74.9229ZM101.797 69.16V58.6812L102.153 49.2717V39.9335H113.06V69.16H101.797Z" fill="white"/>
<path d="M38.4835 70.0154C34.3015 70.0154 30.6422 69.3976 27.5057 68.162C24.3692 66.8789 21.9218 65.0968 20.1635 62.8157C18.4051 60.4871 17.5259 57.7783 17.5259 54.6893C17.5259 51.6003 18.3814 48.9866 20.0922 46.8481C21.8505 44.662 24.2979 43.0225 27.4344 41.9295C30.5709 40.7889 34.2539 40.2186 38.4835 40.2186C42.7605 40.2186 46.4673 40.7889 49.6038 41.9295C52.7878 43.0225 55.2352 44.662 56.946 46.8481C58.7044 48.9866 59.5835 51.6003 59.5835 54.6893C59.5835 57.7783 58.7044 60.4871 56.946 62.8157C55.1877 65.0968 52.7165 66.8789 49.5325 68.162C46.396 69.3976 42.713 70.0154 38.4835 70.0154ZM38.4835 61.5326C41.3823 61.5326 43.6634 60.891 45.3267 59.6079C47.0375 58.3248 47.893 56.5665 47.893 54.3329C47.893 52.0993 47.0375 50.3647 45.3267 49.1292C43.6634 47.846 41.3823 47.2045 38.4835 47.2045C35.6321 47.2045 33.3748 47.846 31.7115 49.1292C30.0482 50.3647 29.2165 52.0993 29.2165 54.3329C29.2165 56.5665 30.0482 58.3248 31.7115 59.6079C33.3748 60.891 35.6321 61.5326 38.4835 61.5326ZM38.4835 46.0639C34.6341 46.0639 31.26 45.5412 28.3611 44.4957C25.5098 43.4502 23.2762 41.9295 21.6604 39.9335C20.0922 37.89 19.308 35.4664 19.308 32.6625C19.308 29.7161 20.1159 27.1974 21.7317 25.1064C23.3475 22.9679 25.6048 21.3284 28.5037 20.1878C31.4026 18.9998 34.7292 18.4057 38.4835 18.4057C42.3328 18.4057 45.6832 18.9998 48.5345 20.1878C51.4334 21.3284 53.6907 22.9679 55.3065 25.1064C56.9698 27.1974 57.8014 29.7161 57.8014 32.6625C57.8014 35.4664 56.9936 37.89 55.3778 39.9335C53.8095 41.9295 51.576 43.4502 48.6771 44.4957C45.7782 45.5412 42.3803 46.0639 38.4835 46.0639ZM38.4835 39.292C40.9071 39.292 42.808 38.7454 44.1862 37.6524C45.6119 36.5594 46.3247 35.0624 46.3247 33.1615C46.3247 31.1656 45.5881 29.6211 44.1149 28.5281C42.6892 27.435 40.8121 26.8885 38.4835 26.8885C36.2024 26.8885 34.349 27.435 32.9233 28.5281C31.4976 29.6211 30.7848 31.1656 30.7848 33.1615C30.7848 35.0624 31.4739 36.5594 32.852 37.6524C34.2302 38.7454 36.1073 39.292 38.4835 39.292Z" fill="white"/>
<path d="M158.62 70.0154C155.151 70.0154 151.705 69.564 148.284 68.661C144.909 67.7106 142.011 66.38 139.587 64.6691L144.149 55.8299C146.05 57.2081 148.236 58.3011 150.707 59.109C153.226 59.9169 155.768 60.3208 158.335 60.3208C161.233 60.3208 163.515 59.7505 165.178 58.61C166.841 57.4694 167.673 55.8774 167.673 53.834C167.673 52.5508 167.34 51.4103 166.675 50.4123C166.009 49.4143 164.821 48.654 163.111 48.1312C161.447 47.6085 159.095 47.3471 156.053 47.3471H143.294L145.86 19.2612H176.298V28.5281H149.994L155.982 23.2531L154.2 43.2839L148.212 38.0089H158.762C163.705 38.0089 167.673 38.698 170.667 40.0761C173.708 41.4068 175.918 43.2364 177.296 45.565C178.674 47.8936 179.363 50.5311 179.363 53.4775C179.363 56.4239 178.627 59.1565 177.154 61.6752C175.68 64.1464 173.399 66.1661 170.31 67.7344C167.269 69.2551 163.372 70.0154 158.62 70.0154Z" fill="white"/>
<rect x="0.624023" y="43.6434" width="193.364" height="103.844" rx="5.34631" fill="#6100FF"/>
<path d="M74.9229 104.264V96.4936L98.4467 64.8435H110.565L87.5402 96.4936L81.9088 94.8541H121.186V104.264H74.9229ZM101.797 114.742V104.264L102.153 94.8541V85.5158H113.06V114.742H101.797Z" fill="white"/>
</svg>
