<svg width="255" height="126" viewBox="0 0 255 126" fill="none" xmlns="http://www.w3.org/2000/svg">
<rect x="57.3108" y="2.15756" width="147.294" height="122.329" rx="5.74198" fill="#FF0000" stroke="#AB0000" stroke-width="2.49651"/>
<path d="M67.2041 84.7657L84.1005 46.5391L86.617 50.7332H64.0285L68.3425 46.1796V57.5637H59.7146V42.8243H93.3276V49.1155L77.7494 84.7657H67.2041ZM121.328 84.7657L138.224 46.5391L140.741 50.7332H118.152L122.466 46.1796V57.5637H113.838V42.8243H147.451V49.1155L131.873 84.7657H121.328ZM175.451 84.7657L192.348 46.5391L194.864 50.7332H172.276L176.59 46.1796V57.5637H167.962V42.8243H201.575V49.1155L185.997 84.7657H175.451Z" fill="white"/>
<path d="M16.7031 85.4848C13.7872 85.4848 10.8912 85.1053 8.01525 84.3464C5.13927 83.5475 2.70267 82.4291 0.705465 80.9911L4.48019 73.5615C6.07796 74.7198 7.93537 75.6386 10.0524 76.3176C12.1695 76.9967 14.3065 77.3362 16.4635 77.3362C18.9001 77.3362 20.8174 76.8569 22.2154 75.8982C23.6135 74.9395 24.3125 73.6214 24.3125 71.9437C24.3125 70.3459 23.6934 69.0877 22.4551 68.169C21.2168 67.2503 19.2196 66.7909 16.4635 66.7909H12.0296V60.3799L23.7133 47.1384L24.7918 50.6135H2.80254V42.8244H32.1615V49.1156L20.5378 62.3571L15.6246 59.541H18.4407C23.5935 59.541 27.4881 60.6994 30.1244 63.0162C32.7607 65.333 34.0788 68.3088 34.0788 71.9437C34.0788 74.3004 33.4597 76.5173 32.2214 78.5944C30.9832 80.6316 29.0858 82.2893 26.5294 83.5675C23.973 84.8457 20.6975 85.4848 16.7031 85.4848Z" fill="white"/>
<path d="M216.326 84.7658V78.4746L232.504 63.1959C233.782 62.0376 234.72 60.999 235.32 60.0803C235.919 59.1616 236.318 58.3227 236.518 57.5638C236.758 56.8049 236.877 56.1058 236.877 55.4667C236.877 53.7891 236.298 52.5109 235.14 51.6321C234.021 50.7134 232.364 50.254 230.167 50.254C228.409 50.254 226.772 50.5935 225.254 51.2726C223.776 51.9516 222.517 53.0102 221.479 54.4482L214.409 49.8945C216.007 47.4979 218.243 45.6005 221.119 44.2025C223.995 42.8044 227.311 42.1054 231.066 42.1054C234.181 42.1054 236.897 42.6247 239.214 43.6632C241.571 44.6618 243.388 46.0798 244.667 47.9173C245.985 49.7547 246.644 51.9516 246.644 54.5081C246.644 55.8662 246.464 57.2243 246.105 58.5824C245.785 59.9005 245.106 61.2986 244.067 62.7765C243.069 64.2545 241.591 65.9121 239.634 67.7496L226.212 80.3919L224.355 76.8569H248.022V84.7658H216.326Z" fill="white"/>
<rect width="2.49651" height="124.578" transform="matrix(-1 0 0 1 105.768 0.909302)" fill="#AB0000"/>
<rect width="2.49651" height="124.826" transform="matrix(-1 0 0 1 158.195 0.909302)" fill="#AB0000"/>
</svg>
