<svg width="272" height="126" viewBox="0 0 272 126" fill="none" xmlns="http://www.w3.org/2000/svg">
<rect x="0.935913" y="0.149414" width="125.013" height="125.013" rx="6.87765" fill="#FF0000"/>
<rect x="146.667" y="0.149414" width="125.013" height="125.013" rx="6.87765" fill="#00FF57"/>
<path d="M33.573 38.4638C31.8175 38.4638 30.2455 38.1232 28.8569 37.442C27.4944 36.7608 26.4333 35.7259 25.6735 34.3372C24.9137 32.9224 24.5338 31.1277 24.5338 28.953V17.0056H30.6647V28.0491C30.6647 29.8045 31.0315 31.1015 31.7651 31.9399C32.525 32.7521 33.5861 33.1582 34.9485 33.1582C35.8917 33.1582 36.7301 32.9617 37.4638 32.5687C38.1974 32.1495 38.7738 31.5207 39.193 30.6823C39.6122 29.8176 39.8218 28.7434 39.8218 27.4596V17.0056H45.9527V38.1494H40.1362V32.3329L41.1973 34.0228C40.4899 35.4901 39.4419 36.6036 38.0533 37.3634C36.6908 38.097 35.1974 38.4638 33.573 38.4638ZM64.1303 38.4638C62.3487 38.4638 60.7897 38.0708 59.4535 37.2848C58.1173 36.4988 57.0693 35.3067 56.3094 33.7084C55.5758 32.084 55.209 30.0403 55.209 27.5775C55.209 25.0884 55.5627 23.0448 56.2701 21.4466C56.9776 19.8483 57.9994 18.6562 59.3356 17.8702C60.6718 17.0842 62.2701 16.6911 64.1303 16.6911C66.1216 16.6911 67.9032 17.1497 69.4752 18.0667C71.0735 18.9575 72.3311 20.2151 73.2481 21.8396C74.1913 23.464 74.6629 25.3766 74.6629 27.5775C74.6629 29.8045 74.1913 31.7303 73.2481 33.3547C72.3311 34.9791 71.0735 36.2368 69.4752 37.1276C67.9032 38.0184 66.1216 38.4638 64.1303 38.4638ZM51.6326 45.7738V17.0056H57.4885V21.3286L57.3706 27.6168L57.7636 33.8656V45.7738H51.6326ZM63.0692 33.4333C64.091 33.4333 64.9949 33.1975 65.7809 32.7259C66.5932 32.2543 67.2351 31.5862 67.7067 30.7216C68.2045 29.8307 68.4534 28.7827 68.4534 27.5775C68.4534 26.3461 68.2045 25.298 67.7067 24.4334C67.2351 23.5688 66.5932 22.9007 65.7809 22.4291C64.9949 21.9575 64.091 21.7217 63.0692 21.7217C62.0474 21.7217 61.1303 21.9575 60.3181 22.4291C59.5059 22.9007 58.864 23.5688 58.3924 24.4334C57.9208 25.298 57.685 26.3461 57.685 27.5775C57.685 28.7827 57.9208 29.8307 58.3924 30.7216C58.864 31.5862 59.5059 32.2543 60.3181 32.7259C61.1303 33.1975 62.0474 33.4333 63.0692 33.4333ZM25.084 86.1494V58.6388H37.5817C40.5685 58.6388 43.2017 59.2152 45.4811 60.3681C47.7606 61.4947 49.5422 63.0798 50.8261 65.1235C52.1099 67.1671 52.7518 69.5907 52.7518 72.3941C52.7518 75.1714 52.1099 77.5949 50.8261 79.6648C49.5422 81.7084 47.7606 83.3067 45.4811 84.4595C43.2017 85.5861 40.5685 86.1494 37.5817 86.1494H25.084ZM31.4507 80.9224H37.2673C39.1013 80.9224 40.6864 80.5818 42.0227 79.9006C43.3851 79.1932 44.4331 78.1975 45.1667 76.9137C45.9265 75.6299 46.3065 74.1234 46.3065 72.3941C46.3065 70.6387 45.9265 69.1321 45.1667 67.8745C44.4331 66.5907 43.3851 65.6082 42.0227 64.927C40.6864 64.2195 39.1013 63.8658 37.2673 63.8658H31.4507V80.9224ZM70.9155 86.621C68.7409 86.621 66.7234 86.2673 64.8632 85.5599C63.0292 84.8525 61.4309 83.8569 60.0685 82.573C58.7323 81.2892 57.6843 79.7827 56.9244 78.0534C56.1908 76.3242 55.824 74.4378 55.824 72.3941C55.824 70.3505 56.1908 68.464 56.9244 66.7348C57.6843 65.0056 58.7454 63.499 60.1078 62.2152C61.4702 60.9314 63.0685 59.9357 64.9025 59.2283C66.7365 58.5209 68.7278 58.1672 70.8762 58.1672C73.0509 58.1672 75.0421 58.5209 76.85 59.2283C78.684 59.9357 80.2691 60.9314 81.6054 62.2152C82.9678 63.499 84.0289 65.0056 84.7887 66.7348C85.5486 68.4378 85.9285 70.3243 85.9285 72.3941C85.9285 74.4378 85.5486 76.3373 84.7887 78.0927C84.0289 79.822 82.9678 81.3285 81.6054 82.6123C80.2691 83.87 78.684 84.8525 76.85 85.5599C75.0421 86.2673 73.064 86.621 70.9155 86.621ZM70.8762 81.1975C72.1077 81.1975 73.2343 80.9879 74.2561 80.5687C75.3041 80.1495 76.2212 79.5469 77.0072 78.7609C77.7932 77.9748 78.3958 77.0447 78.815 75.9705C79.2604 74.8963 79.4831 73.7041 79.4831 72.3941C79.4831 71.0841 79.2604 69.892 78.815 68.8177C78.3958 67.7435 77.7932 66.8134 77.0072 66.0274C76.2474 65.2414 75.3434 64.6387 74.2954 64.2195C73.2474 63.8003 72.1077 63.5907 70.8762 63.5907C69.6448 63.5907 68.5051 63.8003 67.4571 64.2195C66.4352 64.6387 65.5313 65.2414 64.7453 66.0274C63.9593 66.8134 63.3436 67.7435 62.8982 68.8177C62.479 69.892 62.2694 71.0841 62.2694 72.3941C62.2694 73.6779 62.479 74.8701 62.8982 75.9705C63.3436 77.0447 63.9462 77.9748 64.706 78.7609C65.492 79.5469 66.409 80.1495 67.4571 80.5687C68.5051 80.9879 69.6448 81.1975 70.8762 81.1975ZM96.4331 86.1494L87.4333 58.6388H94.0358L101.857 83.0053H98.5554L106.73 58.6388H112.625L120.485 83.0053H117.302L125.319 58.6388H131.411L122.411 86.1494H115.573L108.616 64.7698H110.424L103.271 86.1494H96.4331ZM134.965 86.1494V58.6388H140.231L156.463 78.4464H153.908V58.6388H160.196V86.1494H154.969L138.699 66.3418H141.253V86.1494H134.965Z" fill="white"/>
<path d="M214.617 34.266C213.661 34.266 212.711 34.1416 211.768 33.8927C210.838 33.6307 210.038 33.2639 209.37 32.7923L210.628 30.3556C211.152 30.7355 211.755 31.0368 212.436 31.2595C213.13 31.4822 213.831 31.5936 214.538 31.5936C215.338 31.5936 215.966 31.4364 216.425 31.122C216.883 30.8076 217.113 30.3687 217.113 29.8054C217.113 29.4517 217.021 29.1373 216.837 28.8622C216.654 28.5871 216.327 28.3775 215.855 28.2334C215.396 28.0893 214.748 28.0172 213.91 28.0172H210.392L211.1 20.2749H219.49V22.8295H212.239L213.89 21.3754L213.399 26.8971L211.748 25.443H214.656C216.019 25.443 217.113 25.633 217.938 26.0129C218.776 26.3797 219.385 26.884 219.765 27.526C220.145 28.1679 220.335 28.8949 220.335 29.7071C220.335 30.5194 220.132 31.2726 219.726 31.9669C219.32 32.6482 218.691 33.2049 217.84 33.6372C217.001 34.0564 215.927 34.266 214.617 34.266ZM223.435 34.1874C222.911 34.1874 222.459 34.0106 222.079 33.6569C221.712 33.2901 221.529 32.825 221.529 32.2617C221.529 31.6984 221.712 31.2464 222.079 30.9058C222.459 30.5521 222.911 30.3753 223.435 30.3753C223.972 30.3753 224.424 30.5521 224.791 30.9058C225.157 31.2464 225.341 31.6984 225.341 32.2617C225.341 32.825 225.157 33.2901 224.791 33.6569C224.424 34.0106 223.972 34.1874 223.435 34.1874ZM226.844 34.0302V31.9669L232.149 26.9561C232.569 26.5762 232.876 26.2356 233.073 25.9343C233.269 25.633 233.4 25.3579 233.466 25.1089C233.544 24.86 233.584 24.6308 233.584 24.4212C233.584 23.871 233.394 23.4518 233.014 23.1636C232.647 22.8623 232.103 22.7116 231.383 22.7116C230.807 22.7116 230.269 22.8229 229.772 23.0457C229.287 23.2684 228.874 23.6155 228.534 24.0871L226.215 22.5937C226.739 21.8077 227.473 21.1854 228.416 20.7269C229.359 20.2684 230.446 20.0391 231.678 20.0391C232.7 20.0391 233.59 20.2094 234.35 20.5501C235.123 20.8776 235.719 21.3426 236.138 21.9452C236.571 22.5478 236.787 23.2684 236.787 24.1068C236.787 24.5522 236.728 24.9976 236.61 25.443C236.505 25.8753 236.282 26.3338 235.942 26.8185C235.614 27.3032 235.13 27.8469 234.488 28.4495L230.086 32.5958L229.477 31.4364H237.239V34.0302H226.844ZM238.434 34.0302V31.9669L243.74 26.9561C244.159 26.5762 244.467 26.2356 244.664 25.9343C244.86 25.633 244.991 25.3579 245.057 25.1089C245.135 24.86 245.174 24.6308 245.174 24.4212C245.174 23.871 244.985 23.4518 244.605 23.1636C244.238 22.8623 243.694 22.7116 242.974 22.7116C242.397 22.7116 241.86 22.8229 241.362 23.0457C240.878 23.2684 240.465 23.6155 240.124 24.0871L237.806 22.5937C238.33 21.8077 239.063 21.1854 240.006 20.7269C240.95 20.2684 242.037 20.0391 243.268 20.0391C244.29 20.0391 245.181 20.2094 245.941 20.5501C246.714 20.8776 247.31 21.3426 247.729 21.9452C248.161 22.5478 248.378 23.2684 248.378 24.1068C248.378 24.5522 248.319 24.9976 248.201 25.443C248.096 25.8753 247.873 26.3338 247.533 26.8185C247.205 27.3032 246.72 27.8469 246.078 28.4495L241.677 32.5958L241.068 31.4364H248.829V34.0302H238.434ZM249.398 34.0302L254.133 27.8207L254.074 29.5106L249.535 23.4583H252.974L255.843 27.408L254.546 27.4474L257.513 23.4583H260.775L256.216 29.4517V27.8011L260.932 34.0302H257.454L254.448 29.8251L255.725 30.0019L252.738 34.0302H249.398Z" fill="white"/>
<rect x="215.333" y="38.0467" width="4.91261" height="101.965" rx="2.4563" transform="rotate(37.9784 215.333 38.0467)" fill="#FF0000"/>
<circle cx="216.045" cy="40.9879" r="1.22815" fill="#FF8A00"/>
</svg>
