<svg width="614" height="161" viewBox="0 0 614 161" fill="none" xmlns="http://www.w3.org/2000/svg">
<path d="M41.2106 146.892V103.992L46.7606 118.692L0.560644 41.8922H26.3606L61.7606 100.842H46.9106L82.4606 41.8922H106.311L60.1106 118.692L65.5106 103.992V146.892H41.2106ZM137.949 84.1922H188.499V103.092H137.949V84.1922ZM139.749 127.392H196.899V146.892H115.599V41.8922H194.949V61.3922H139.749V127.392ZM250.734 148.692C242.334 148.692 234.284 147.592 226.584 145.392C218.884 143.092 212.684 140.142 207.984 136.542L216.234 118.242C220.734 121.442 226.034 124.092 232.134 126.192C238.334 128.192 244.584 129.192 250.884 129.192C255.684 129.192 259.534 128.742 262.434 127.842C265.434 126.842 267.634 125.492 269.034 123.792C270.434 122.092 271.134 120.142 271.134 117.942C271.134 115.142 270.034 112.942 267.834 111.342C265.634 109.642 262.734 108.292 259.134 107.292C255.534 106.192 251.534 105.192 247.134 104.292C242.834 103.292 238.484 102.092 234.084 100.692C229.784 99.2922 225.834 97.4922 222.234 95.2922C218.634 93.0922 215.684 90.1922 213.384 86.5922C211.184 82.9922 210.084 78.3922 210.084 72.7922C210.084 66.7922 211.684 61.3422 214.884 56.4422C218.184 51.4422 223.084 47.4922 229.584 44.5922C236.184 41.5922 244.434 40.0922 254.334 40.0922C260.934 40.0922 267.434 40.8922 273.834 42.4922C280.234 43.9922 285.884 46.2922 290.784 49.3922L283.284 67.8422C278.384 65.0422 273.484 62.9922 268.584 61.6922C263.684 60.2922 258.884 59.5922 254.184 59.5922C249.484 59.5922 245.634 60.1422 242.634 61.2422C239.634 62.3422 237.484 63.7922 236.184 65.5922C234.884 67.2922 234.234 69.2922 234.234 71.5922C234.234 74.2922 235.334 76.4922 237.534 78.1922C239.734 79.7922 242.634 81.0922 246.234 82.0922C249.834 83.0922 253.784 84.0922 258.084 85.0922C262.484 86.0922 266.834 87.2422 271.134 88.5422C275.534 89.8422 279.534 91.5922 283.134 93.7922C286.734 95.9922 289.634 98.8922 291.834 102.492C294.134 106.092 295.284 110.642 295.284 116.142C295.284 122.042 293.634 127.442 290.334 132.342C287.034 137.242 282.084 141.192 275.484 144.192C268.984 147.192 260.734 148.692 250.734 148.692Z" fill="#00FF57"/>
<path d="M293.748 160.278L343.248 18.9784H364.098L314.598 160.278H293.748Z" fill="white"/>
<path d="M375.01 145.278V40.2784H395.11L457.06 115.878H447.31V40.2784H471.31V145.278H451.36L389.26 69.6784H399.01V145.278H375.01ZM547.153 147.078C538.853 147.078 531.153 145.728 524.053 143.028C517.053 140.328 510.953 136.528 505.753 131.628C500.653 126.728 496.653 120.978 493.753 114.378C490.953 107.778 489.553 100.578 489.553 92.7784C489.553 84.9784 490.953 77.7784 493.753 71.1784C496.653 64.5784 500.703 58.8284 505.903 53.9284C511.103 49.0284 517.203 45.2284 524.203 42.5284C531.203 39.8284 538.803 38.4784 547.003 38.4784C555.303 38.4784 562.903 39.8284 569.803 42.5284C576.803 45.2284 582.853 49.0284 587.953 53.9284C593.153 58.8284 597.203 64.5784 600.103 71.1784C603.003 77.6784 604.453 84.8784 604.453 92.7784C604.453 100.578 603.003 107.828 600.103 114.528C597.203 121.128 593.153 126.878 587.953 131.778C582.853 136.578 576.803 140.328 569.803 143.028C562.903 145.728 555.353 147.078 547.153 147.078ZM547.003 126.378C551.703 126.378 556.003 125.578 559.903 123.978C563.903 122.378 567.403 120.078 570.403 117.078C573.403 114.078 575.703 110.528 577.303 106.428C579.003 102.328 579.853 97.7784 579.853 92.7784C579.853 87.7784 579.003 83.2284 577.303 79.1284C575.703 75.0284 573.403 71.4784 570.403 68.4784C567.503 65.4784 564.053 63.1784 560.053 61.5784C556.053 59.9784 551.703 59.1784 547.003 59.1784C542.303 59.1784 537.953 59.9784 533.953 61.5784C530.053 63.1784 526.603 65.4784 523.603 68.4784C520.603 71.4784 518.253 75.0284 516.553 79.1284C514.953 83.2284 514.153 87.7784 514.153 92.7784C514.153 97.6784 514.953 102.228 516.553 106.428C518.253 110.528 520.553 114.078 523.453 117.078C526.453 120.078 529.953 122.378 533.953 123.978C537.953 125.578 542.303 126.378 547.003 126.378Z" fill="#FF0000"/>
</svg>
