<svg width="92" height="92" viewBox="0 0 92 92" fill="none" xmlns="http://www.w3.org/2000/svg">
<rect x="1.2988" y="1.28757" width="89.1437" height="89.1437" rx="44.5719" fill="black" stroke="white" stroke-width="1.29194"/>
<path d="M22.8691 51.1699H21.0634L25.1209 39.8948H27.0863L31.1438 51.1699H29.338L26.1504 41.9428H26.0623L22.8691 51.1699ZM23.1719 46.7546H29.0297V48.186H23.1719V46.7546ZM32.772 51.1699V39.8948H34.4732V49.7055H39.5822V51.1699H32.772ZM43.224 39.8948V51.1699H41.5229V39.8948H43.224ZM54.8019 39.8948V51.1699H53.2384L47.5073 42.9008H47.4027V51.1699H45.7015V39.8948H47.276L53.0127 48.175H53.1173V39.8948H54.8019ZM57.2835 51.1699V39.8948H58.9847V45.2791H59.1223L63.8515 39.8948H65.9931L61.4456 44.9708L66.0096 51.1699H63.9616L60.317 46.1325L58.9847 47.663V51.1699H57.2835ZM69.2798 39.8948V51.1699H67.5786V39.8948H69.2798Z" fill="white"/>
<circle cx="24.7678" cy="35.2839" r="0.645969" fill="black" stroke="#FF9901" stroke-width="0.480008"/>
<path d="M23.4425 34.6416C23.2983 34.5377 23.1421 34.4251 22.9762 34.3057C23.0942 34.3569 23.1838 34.395 23.2395 34.4176C23.3283 34.4536 23.4128 34.4879 23.4933 34.5206C23.4724 34.5609 23.4557 34.6014 23.4425 34.6416Z" fill="black" stroke="#FF9901" stroke-width="1.29194"/>
<path fill-rule="evenodd" clip-rule="evenodd" d="M90.9027 41.7259C65.8778 42.4753 43.1898 56.084 26.5743 77.8773C25.0006 79.9414 23.4819 82.0784 22.0214 84.2842C21.6554 84.0565 21.293 83.8238 20.9341 83.5861C37.9753 57.8417 62.8929 41.3079 90.7673 40.4375C90.8184 40.8652 90.8636 41.2947 90.9027 41.7259Z" fill="url(#paint0_linear_81_1168)"/>
<defs>
<linearGradient id="paint0_linear_81_1168" x1="26.9058" y1="23.2227" x2="68.7347" y2="31.7512" gradientUnits="userSpaceOnUse">
<stop stop-color="#FFACAC"/>
<stop offset="1" stop-color="#FF9900"/>
</linearGradient>
</defs>
</svg>
