<svg width="51" height="51" viewBox="0 0 51 51" fill="none" xmlns="http://www.w3.org/2000/svg">
<g clip-path="url(#clip0_113_20)">
<path fill-rule="evenodd" clip-rule="evenodd" d="M25.3604 0.297852C39.1684 0.297852 50.3604 11.4898 50.3604 25.2979C50.3604 39.1059 39.1684 50.2979 25.3604 50.2979C11.5523 50.2979 0.360352 39.1059 0.360352 25.2979C0.360352 11.4898 11.5523 0.297852 25.3604 0.297852Z" fill="#F0B90B"/>
<path d="M14.1003 25.2979L14.1184 31.9085L19.7354 35.2138V39.084L10.8311 33.8616V23.3648L14.1003 25.2979ZM14.1003 18.6873V22.5395L10.8291 20.6044V16.7522L14.1003 14.8171L17.3876 16.7522L14.1003 18.6873ZM22.0811 16.7522L25.3523 14.8171L28.6396 16.7522L25.3523 18.6873L22.0811 16.7522Z" fill="white"/>
<path d="M16.4644 30.5383V26.6681L19.7356 28.6032V32.4554L16.4644 30.5383ZM22.0813 36.6L25.3526 38.5351L28.6398 36.6V40.4522L25.3526 42.3873L22.0813 40.4522V36.6ZM33.3313 16.7522L36.6026 14.8171L39.8898 16.7522V20.6044L36.6026 22.5395V18.6873L33.3313 16.7522ZM36.6026 31.9085L36.6206 25.2979L39.8918 23.3628V33.8596L30.9876 39.082V35.2118L36.6026 31.9085Z" fill="white"/>
<path d="M34.2566 30.5383L30.9854 32.4554V28.6032L34.2566 26.6681V30.5383Z" fill="white"/>
<path d="M34.2568 20.0575L34.2749 23.9276L28.6418 27.2329V33.8595L25.3706 35.7766L22.0994 33.8595V27.2329L16.4664 23.9276V20.0575L19.7516 18.1224L25.3506 21.4437L30.9836 18.1224L34.2708 20.0575H34.2568ZM16.4644 13.4489L25.3526 8.2085L34.2568 13.4489L30.9856 15.384L25.3526 12.0627L19.7356 15.384L16.4644 13.4489Z" fill="white"/>
</g>
<defs>
<clipPath id="clip0_113_20">
<rect width="50" height="50" fill="white" transform="translate(0.360352 0.297852)"/>
</clipPath>
</defs>
</svg>
