<svg width="50" height="51" viewBox="0 0 50 51" fill="none" xmlns="http://www.w3.org/2000/svg">
<g clip-path="url(#clip0_117_87)">
<path d="M49.2491 32.0452C45.9102 45.4382 32.3452 53.5889 18.9507 50.2491C5.56171 46.9102 -2.589 33.3444 0.751399 19.9525C4.08886 6.55803 17.6538 -1.59329 31.0442 1.74564C44.4378 5.08457 52.588 18.6518 49.2487 32.0454L49.249 32.0452H49.2491Z" fill="#F7931A"/>
<path d="M36.0237 22.4358C36.5212 19.1088 33.9883 17.3204 30.5248 16.1274L31.6484 11.6208L28.905 10.9372L27.8112 15.3252C27.09 15.1453 26.3494 14.9758 25.6133 14.8078L26.715 10.3908L23.9734 9.70728L22.8491 14.2125C22.2523 14.0766 21.6662 13.9423 21.0974 13.8008L21.1006 13.7866L17.3175 12.8419L16.5877 15.7719C16.5877 15.7719 18.6231 16.2385 18.5802 16.2672C19.6911 16.5445 19.892 17.2799 19.8586 17.8628L18.5787 22.9969C18.6552 23.0163 18.7544 23.0444 18.8639 23.0884C18.7724 23.0657 18.675 23.0409 18.5739 23.0167L16.78 30.2089C16.6442 30.5464 16.2996 31.0529 15.5229 30.8606C15.5504 30.9004 13.529 30.363 13.529 30.363L12.167 33.5032L15.737 34.3932C16.4011 34.5597 17.052 34.734 17.6929 34.8978L16.5577 39.4562L19.2978 40.1398L20.4221 35.6298C21.1706 35.833 21.8971 36.0205 22.6083 36.1972L21.4879 40.6859L24.2313 41.3694L25.3664 36.8196C30.0444 37.705 33.5619 37.348 35.0424 33.1168C36.2354 29.7102 34.983 27.7452 32.522 26.4639C34.3145 26.0505 35.6646 24.8715 36.0246 22.4361L36.0238 22.4355L36.0237 22.4358ZM29.7558 31.2249C28.908 34.6316 23.1722 32.7901 21.3126 32.3283L22.8191 26.2893C24.6786 26.7535 30.6418 27.6722 29.7559 31.2249H29.7558ZM30.6042 22.3864C29.8308 25.4851 25.0569 23.9108 23.5083 23.5248L24.8741 18.0478C26.4227 18.4338 31.4098 19.1543 30.6044 22.3864H30.6042Z" fill="white"/>
</g>
<defs>
<clipPath id="clip0_117_87">
<rect width="50" height="50" fill="white" transform="translate(0 0.997559)"/>
</clipPath>
</defs>
</svg>
