<svg width="60" height="51" viewBox="0 0 60 51" fill="none" xmlns="http://www.w3.org/2000/svg">
<g clip-path="url(#clip0_142_150)">
<path fill-rule="evenodd" clip-rule="evenodd" d="M10.9858 1.24289L0.0457096 23.2566C0.0040794 23.3385 -0.00911296 23.431 0.00806182 23.5206C0.0252366 23.6102 0.0718775 23.6921 0.141164 23.7545L29.6878 50.8771C29.7717 50.9542 29.8835 50.9973 29.9997 50.9973C30.116 50.9973 30.2278 50.9542 30.3117 50.8771L59.8583 23.7562C59.9276 23.6938 59.9743 23.6119 59.9914 23.5223C60.0086 23.4327 59.9954 23.3402 59.9538 23.2583L49.0137 1.24458C48.9784 1.17065 48.9216 1.10802 48.8501 1.06418C48.7787 1.02033 48.6955 0.997133 48.6107 0.997347H11.3924C11.3071 0.996331 11.2233 1.01897 11.1512 1.06254C11.0791 1.10611 11.0216 1.16874 10.9858 1.24289V1.24289V1.24289Z" fill="#50AF95"/>
<path fill-rule="evenodd" clip-rule="evenodd" d="M33.7961 25.5176C33.5839 25.5328 32.488 25.5955 30.0433 25.5955C28.0989 25.5955 26.7183 25.5396 26.234 25.5176C18.7196 25.2009 13.1108 23.9478 13.1108 22.4475C13.1108 20.9472 18.7196 19.6958 26.234 19.374V24.2696C26.7254 24.3034 28.1324 24.383 30.0769 24.383C32.4102 24.383 33.5786 24.2899 33.789 24.2713V19.3774C41.2874 19.6975 46.8839 20.9506 46.8839 22.4475C46.8839 23.9444 41.2892 25.1975 33.789 25.5159L33.7961 25.5176ZM33.7961 18.8711V14.4904H44.2607V7.81006H15.7694V14.4904H26.2322V18.8694C17.7279 19.2437 11.3325 20.8574 11.3325 22.7913C11.3325 24.7251 17.7279 26.3372 26.2322 26.7131V40.7511H33.7943V26.708C42.2791 26.3338 48.6639 24.7217 48.6639 22.7896C48.6639 20.8574 42.2844 19.2454 33.7943 18.8694L33.7961 18.8711Z" fill="white"/>
</g>
<defs>
<clipPath id="clip0_142_150">
<rect width="60" height="50" fill="white" transform="translate(0 0.997559)"/>
</clipPath>
</defs>
</svg>
