<svg width="23" height="19" viewBox="0 0 23 19" fill="none" xmlns="http://www.w3.org/2000/svg">
<path d="M20.7596 0.168043C20.7596 0.168043 22.7832 -0.62102 22.6145 1.29528C22.5583 2.08435 22.0524 4.84607 21.6589 7.83326L20.3099 16.6821C20.3099 16.6821 20.1975 17.9784 19.1857 18.2038C18.1738 18.4292 16.6562 17.4148 16.3751 17.1893C16.1502 17.0202 12.1593 14.4839 10.754 13.244C10.3605 12.9058 9.91081 12.2295 10.8102 11.4404L16.7124 5.80425C17.3869 5.12789 18.0614 3.54977 15.2509 5.46607L7.38134 10.8204C7.38134 10.8204 6.48196 11.384 4.79566 10.8768L1.14192 9.74956C1.14192 9.74956 -0.207149 8.90414 2.09751 8.05867C7.71863 5.40966 14.6326 2.7043 20.7596 0.168043Z" fill="white"/>
</svg>
