<svg width="50" height="41" viewBox="0 0 50 41" fill="none" xmlns="http://www.w3.org/2000/svg">
<path d="M48.8665 5.47614C48.081 5.81656 47.2734 6.10387 46.4483 6.33712C47.4252 5.25755 48.17 3.98729 48.6247 2.59725C48.7266 2.28568 48.621 1.94463 48.3589 1.74085C48.0971 1.53692 47.7334 1.51249 47.4452 1.67939C45.6928 2.69497 43.8021 3.42481 41.8197 3.8516C39.8228 1.94494 37.1105 0.859863 34.3066 0.859863C28.3881 0.859863 23.5729 5.56472 23.5729 11.3477C23.5729 11.8032 23.6025 12.2561 23.6608 12.7028C16.3165 12.0727 9.48858 8.54542 4.79987 2.92553C4.63277 2.72522 4.37535 2.61727 4.1118 2.63791C3.84809 2.65809 3.61116 2.80339 3.47793 3.02672C2.52697 4.62116 2.02422 6.44476 2.02422 8.30019C2.02422 10.8273 2.94761 13.2251 4.57874 15.0986C4.08277 14.9308 3.60148 14.721 3.14213 14.4718C2.89551 14.3377 2.59455 14.3398 2.34955 14.477C2.10438 14.6143 1.95068 14.8668 1.94422 15.1427C1.94309 15.1892 1.94309 15.2357 1.94309 15.2828C1.94309 19.055 4.02084 22.4512 7.19745 24.3022C6.92455 24.2755 6.6518 24.2369 6.38084 24.1863C6.10148 24.1342 5.81422 24.2298 5.62584 24.438C5.43713 24.6461 5.37471 24.936 5.46164 25.2008C6.63745 28.7878 9.66471 31.4262 13.3244 32.2306C10.2891 34.0882 6.81793 35.0613 3.17406 35.0613C2.41374 35.0613 1.64906 35.0176 0.900675 34.9311C0.528901 34.8879 0.173417 35.1024 0.046804 35.4479C-0.0798089 35.7935 0.0543846 36.1788 0.370675 36.3769C5.0518 39.3097 10.4645 40.8599 16.0234 40.8599C26.9515 40.8599 33.7878 35.8245 37.5983 31.6003C42.3499 26.3332 45.075 19.3614 45.075 12.4728C45.075 12.185 45.0705 11.8944 45.0615 11.6048C46.9362 10.2247 48.5502 8.5544 49.8636 6.63467C50.0631 6.34311 50.0415 5.95777 49.8104 5.68938C49.5795 5.42083 49.1949 5.33399 48.8665 5.47614Z" fill="white"/>
</svg>
