<svg width="51" height="36" viewBox="0 0 51 36" fill="none" xmlns="http://www.w3.org/2000/svg">
<path d="M48.3001 3.36436C46.4953 1.23035 43.1631 0.359863 36.7992 0.359863H13.6984C7.18886 0.359863 3.80015 1.2865 2.00209 3.55848C0.249023 5.77368 0.249023 9.03759 0.249023 13.5549V22.165C0.249023 30.9165 2.32902 35.3599 13.6984 35.3599H36.7993C42.3181 35.3599 45.3761 34.5917 47.3545 32.7085C49.3834 30.7772 50.249 27.624 50.249 22.165V13.5549C50.249 8.79101 50.1134 5.50785 48.3001 3.36436ZM32.3492 19.0486L21.8592 24.5018C21.6247 24.6237 21.3682 24.6842 21.1121 24.6842C20.8221 24.6842 20.5327 24.6065 20.2764 24.4522C19.7939 24.1613 19.4992 23.6411 19.4992 23.0799V12.2086C19.4992 11.6484 19.7931 11.1286 20.2747 10.8376C20.7564 10.5466 21.3556 10.5267 21.8555 10.785L32.3455 16.203C32.8792 16.4786 33.2143 17.0266 33.2152 17.6245C33.2158 18.2229 32.8821 18.7717 32.3492 19.0486Z" fill="white"/>
</svg>
