<svg width="83" height="73" viewBox="0 0 83 73" fill="none" xmlns="http://www.w3.org/2000/svg">
<path d="M11.5696 71.2688L59.3696 1.26879H71.2696L23.4696 71.2688H11.5696ZM17.6696 39.0688C14.2696 39.0688 11.2696 38.3021 8.66958 36.7688C6.06958 35.1688 4.00291 32.9355 2.46958 30.0688C1.00291 27.1355 0.26958 23.7021 0.26958 19.7688C0.26958 15.8355 1.00291 12.4355 2.46958 9.56879C4.00291 6.70213 6.06958 4.4688 8.66958 2.8688C11.2696 1.2688 14.2696 0.468798 17.6696 0.468798C21.0696 0.468798 24.0696 1.2688 26.6696 2.8688C29.2696 4.4688 31.3029 6.70213 32.7696 9.56879C34.2362 12.4355 34.9696 15.8355 34.9696 19.7688C34.9696 23.7021 34.2362 27.1355 32.7696 30.0688C31.3029 32.9355 29.2696 35.1688 26.6696 36.7688C24.0696 38.3021 21.0696 39.0688 17.6696 39.0688ZM17.6696 30.8688C19.8696 30.8688 21.6362 29.9688 22.9696 28.1688C24.3029 26.3021 24.9696 23.5021 24.9696 19.7688C24.9696 16.0355 24.3029 13.2688 22.9696 11.4688C21.6362 9.60213 19.8696 8.66879 17.6696 8.66879C15.5362 8.66879 13.7696 9.60213 12.3696 11.4688C11.0362 13.2688 10.3696 16.0355 10.3696 19.7688C10.3696 23.4355 11.0362 26.2021 12.3696 28.0688C13.7696 29.9355 15.5362 30.8688 17.6696 30.8688ZM65.1696 72.0688C61.8363 72.0688 58.8363 71.3021 56.1696 69.7688C53.5696 68.1688 51.5363 65.9355 50.0696 63.0688C48.6029 60.1355 47.8696 56.7021 47.8696 52.7688C47.8696 48.8355 48.6029 45.4355 50.0696 42.5688C51.5363 39.7021 53.5696 37.4688 56.1696 35.8688C58.8363 34.2688 61.8363 33.4688 65.1696 33.4688C68.6363 33.4688 71.6696 34.2688 74.2696 35.8688C76.8696 37.4688 78.9029 39.7021 80.3696 42.5688C81.8363 45.4355 82.5696 48.8355 82.5696 52.7688C82.5696 56.7021 81.8363 60.1355 80.3696 63.0688C78.9029 65.9355 76.8696 68.1688 74.2696 69.7688C71.6696 71.3021 68.6363 72.0688 65.1696 72.0688ZM65.1696 63.8688C67.3696 63.8688 69.1363 62.9688 70.4696 61.1688C71.8029 59.3021 72.4696 56.5021 72.4696 52.7688C72.4696 49.1021 71.8029 46.3355 70.4696 44.4688C69.1363 42.6021 67.3696 41.6688 65.1696 41.6688C63.0363 41.6688 61.2696 42.6021 59.8696 44.4688C58.5363 46.2688 57.8696 49.0355 57.8696 52.7688C57.8696 56.5021 58.5363 59.3021 59.8696 61.1688C61.2696 62.9688 63.0363 63.8688 65.1696 63.8688Z" fill="white"/>
</svg>
