<svg width="87" height="88" viewBox="0 0 87 88" fill="none" xmlns="http://www.w3.org/2000/svg">
<g clip-path="url(#clip0_76_868)">
<rect width="87" height="87" transform="translate(-0.000244141 0.268799)" fill="black"/>
<path d="M43.5001 87.2689C43.2185 87.2689 42.9366 87.2253 42.6651 87.1383C33.5385 84.2148 25.7684 78.6073 19.5702 70.4718C14.6906 64.0668 10.7833 56.095 7.95784 46.7779C3.19146 31.0628 3.13672 17.0631 3.13672 16.4749C3.13672 15.0653 4.20747 13.8859 5.61078 13.7504C5.82208 13.7299 27.08 11.5476 41.8918 0.791105C42.8509 0.0942405 44.1497 0.0950617 45.1087 0.791379C59.9164 11.5476 81.1771 13.7299 81.39 13.7507C82.7923 13.8876 83.8627 15.0664 83.8627 16.4749C83.8627 17.0631 83.808 31.0628 79.0419 46.7782C76.2161 56.0952 72.3092 64.067 67.4295 70.4721C61.2316 78.6076 53.4615 84.2151 44.335 87.1386C44.0634 87.2253 43.7818 87.2689 43.5001 87.2689ZM8.68947 18.8762C8.91692 23.4701 9.80128 34.0501 13.2341 45.3141C19.0929 64.5359 29.2738 76.7551 43.4999 81.648C57.759 76.7442 67.9517 64.4833 73.8031 45.1893C77.2127 33.9469 78.0875 23.4474 78.3116 18.8765C72.1794 17.9817 56.295 14.9537 43.4996 6.34467C30.7031 14.9528 14.8219 17.9814 8.68947 18.8762Z" fill="white"/>
<path d="M42.0366 57.0978C41.3873 57.0978 40.7556 56.8668 40.2577 56.4409L30.3596 47.9761C29.2108 46.9938 29.0759 45.2661 30.0582 44.1171C31.0403 42.9681 32.7682 42.8329 33.9172 43.8158L41.6151 50.3987L56.8725 30.3856C57.7888 29.1835 59.5061 28.9514 60.7085 29.8683C61.9109 30.7847 62.1422 32.5022 61.2258 33.7044L44.2134 56.0199C43.7571 56.6185 43.0748 57.0028 42.3262 57.0825C42.2295 57.0926 42.1329 57.0978 42.0366 57.0978Z" fill="white"/>
</g>
<defs>
<clipPath id="clip0_76_868">
<rect width="87" height="87" fill="white" transform="translate(-0.000244141 0.268799)"/>
</clipPath>
</defs>
</svg>
